<?xml version="1.0" encoding="utf-8"?>
<!-- Generator: Adobe Illustrator 16.0.0, SVG Export Plug-In . SVG Version: 6.00 Build 0)  -->
<!DOCTYPE svg PUBLIC "-//W3C//DTD SVG 1.1//EN" "http://www.w3.org/Graphics/SVG/1.1/DTD/svg11.dtd">
<svg version="1.1" id="Layer_1" xmlns="http://www.w3.org/2000/svg" xmlns:xlink="http://www.w3.org/1999/xlink" x="0px" y="0px"
	 width="250px" height="250px" viewBox="0 0 250 250" enable-background="new 0 0 250 250" xml:space="preserve">
<path fill="#010101" d="M162.868,81.797H60.131c-30.955,0-56.129,25.177-56.129,56.129c0,30.955,25.178,56.085,56.129,56.085h44.766
	c9.97,0,18.09-8.077,18.09-18.054c0-3.617-1.089-7.017-2.919-9.844c5.286-3.115,8.885-8.906,8.885-15.495
	c0-3.663-1.081-7.005-2.959-9.817c5.361-3.188,8.909-8.935,8.909-15.564c0-2.599-0.537-5.061-1.542-7.295h29.507
	c10.004,0,18.09-8.116,18.09-18.09C180.958,89.885,172.872,81.797,162.868,81.797z M162.868,107.146H84.756
	c-2.999,0-5.397,2.426-5.397,5.397c0,2.995,2.402,5.397,5.397,5.397h32.073c4.032,0,7.295,3.268,7.295,7.295
	c0,4.032-3.263,7.299-7.295,7.299H84.756c-2.999,0-5.397,2.41-5.397,5.395c0,2.955,2.402,5.4,5.397,5.4h26.107
	c4.032,0,7.295,3.268,7.295,7.292c0,4.011-3.263,7.29-7.295,7.29H84.756c-2.999,0-5.397,2.368-5.397,5.389
	c0,2.97,2.402,5.393,5.397,5.393h20.141c4.032,0,7.295,3.281,7.295,7.264c0,3.999-3.263,7.268-7.295,7.268H60.131
	c-25.013,0-45.334-20.321-45.334-45.295c0-25.01,20.321-45.352,45.334-45.352h102.737c4.027,0,7.291,3.281,7.291,7.272
	C170.159,103.879,166.896,107.146,162.868,107.146z M238.605,55.95c-10.421,0-20.265,4.625-26.9,12.649
	c-0.837,0.977-1.265,2.184-1.265,3.459v5.626h-12.877c-2.96,0-5.402,2.402-5.402,5.397v33.555c0,2.995,2.442,5.397,5.402,5.397
	h12.877v5.643c0,1.229,0.428,2.462,1.265,3.438c6.636,8.051,16.479,12.654,26.9,12.654c2.954,0,5.396-2.446,5.396-5.402V61.343
	C244.002,58.361,241.56,55.95,238.605,55.95z M210.444,111.238h-7.484V88.475h7.484V111.238z M233.207,132.361
	c-4.554-1.03-8.688-3.358-11.968-6.745V74.1c3.279-3.387,7.414-5.714,11.968-6.743V132.361z"/>
</svg>
